<svg id="Logo" xmlns="http://www.w3.org/2000/svg" viewBox="0 0 1176.1 1136.48"><defs><style>.cls-1{fill:#3850a2;}.cls-2{fill:#68bc48;}.cls-3{font-size:46.27px;fill:#282828;font-family:MADETOMMY-Light, MADE TOMMY;font-weight:300;letter-spacing:0.01em;}</style></defs><title>Logo - Slogan Colored</title><path class="cls-1" d="M255.46,809.82c0,37.15-28.37,54.49-62.59,54.49H172.61v46.6h-38.5V753.31h58.76C232.05,753.31,255.46,775.82,255.46,809.82Zm-39.17,0c0-12.16-8.56-20-23.42-20H172.61v40.08h20.26C206.83,829.86,216.29,823.56,216.29,809.82Z"/><path class="cls-1" d="M511,910.91l-26.57-52.68H460.1v52.68H421.6V753.31h60.56c40.08,0,60.57,23,60.57,54.48,0,18.92-9.23,33.1-24.32,41.66L552,910.91Zm-50.88-85.1h22.06c11.26,0,21.62-4.51,21.62-18,0-11.7-8.79-18-21.62-18H460.1Z"/><path class="cls-1" d="M606.21,753.31v157.6h-38.5V753.31Z"/><path class="cls-1" d="M738.82,789.78H701.9V910.91H663.4V789.78H626.47V753.31H738.82Z"/><path class="cls-1" d="M890.79,753.31v96.36c0,43.23-24.54,64.17-65.74,64.17s-66-20.94-66-64.17V753.31h38.73v92.54c0,20.93,9.9,30.84,27.24,30.84,17.11,0,27.24-9.91,27.24-30.84V753.31Z"/><path class="cls-1" d="M1031.73,864.76c0,25.66-22.29,49.08-61.69,49.08-29,0-56.51-11.26-63.49-40.53l35.57-11c2,9,10.36,18.69,27.47,18.69,13.28,0,23.19-5.18,23.19-15.54,0-11.7-15.53-13.51-33.32-18-31.52-7.65-45.71-22.29-45.71-48.63,0-30.17,25-48.18,57.87-48.18,27,0,50,14.41,56.06,39.4l-35.57,8.78c-2-7.66-8.56-15.31-22.29-15.31-11.26,0-18.69,6.08-18.69,15.08,0,12.39,18.69,15.31,30.84,18.69C1020.47,828.06,1031.73,840.22,1031.73,864.76Z"/><path class="cls-2" d="M397,753.31v26.47a10,10,0,0,1-10,10H275.72V763.31a10,10,0,0,1,10-10Z"/><path class="cls-2" d="M397,813.87v26.48a10,10,0,0,1-10,10H275.72V823.87a10,10,0,0,1,10-10Z"/><path class="cls-2" d="M397,874.44v26.47a10,10,0,0,1-10,10H275.72V884.44a10,10,0,0,1,10-10Z"/><rect class="cls-2" x="426.04" y="197.92" width="313.76" height="313.76" rx="14.28" transform="translate(-80.15 516.11) rotate(-45)"/><path class="cls-1" d="M1017.42,601.92H642.66a14.28,14.28,0,0,1-10.1-24.38L819.94,390.16a14.28,14.28,0,0,1,20.2,0l187.38,187.38A14.28,14.28,0,0,1,1017.42,601.92Z"/><path class="cls-1" d="M345.9,390.16,533.28,577.54a14.28,14.28,0,0,1-10.1,24.38H148.42a14.28,14.28,0,0,1-10.1-24.38L325.7,390.16A14.28,14.28,0,0,1,345.9,390.16Z"/><text class="cls-3" transform="translate(129.89 979.47)">Exceptional Experience. Excellent Expertise</text></svg>