<svg width="2849" height="985" viewBox="0 0 2849 985" fill="none" xmlns="http://www.w3.org/2000/svg">
<path d="M2740.85 561.432H2823.1L2749.07 637.203H2718.91L2740.85 561.432Z" fill="#B99962"/>
<path fill-rule="evenodd" clip-rule="evenodd" d="M2756.53 656.081C2825.39 656.082 2830.59 718.13 2782.55 744.551L2694.48 792.989C2706.49 810.202 2727.31 822.613 2760.14 822.613C2795.36 822.613 2830.99 802.196 2847 772.973L2849.01 774.575C2834.59 824.214 2789.76 864.246 2735.32 864.246C2666.06 864.246 2629.63 818.609 2629.63 768.57C2629.63 703.719 2684.48 656.081 2756.53 656.081ZM2735.72 664.088C2713.7 664.088 2680.07 693.712 2680.07 744.151C2680.07 759.763 2683.68 776.176 2692.08 789.786L2709.3 780.179C2778.55 741.349 2766.14 664.089 2735.72 664.088Z" fill="#064C41"/>
<path fill-rule="evenodd" clip-rule="evenodd" d="M2006.88 580.023C2110.83 580.023 2163.66 607.733 2164.97 669.32L2231.16 656.081V704.52C2247.58 673.696 2265.19 656.081 2303.62 656.081C2324.21 656.081 2340.55 661.501 2351.02 669.646L2418.84 656.081V835.423C2418.84 849.033 2428.85 859.041 2438.86 859.042V860.242H2348.79V859.042C2358.8 859.042 2368.8 849.033 2368.8 835.423V694.913C2368.8 683.69 2362 674.917 2354 672.184C2357.13 675.111 2359.57 678.318 2361.27 681.702C2368.07 694.912 2365.27 710.525 2352.06 718.932C2346.86 722.134 2341.25 723.735 2336.05 723.735C2325.24 723.735 2315.23 717.73 2307.62 708.122C2292.81 688.908 2287.21 668.092 2274.8 668.091C2264.39 668.091 2246.38 686.506 2231.16 712.126V835.423C2231.16 849.033 2241.17 859.042 2251.18 859.042V860.242H2161.11V859.042C2171.12 859.042 2181.12 849.033 2181.12 835.423V694.913C2181.12 683.077 2173.56 673.967 2165 671.792C2164.95 734.973 2112.11 763.366 2006.88 763.366H2003.68V835.423C2003.68 849.033 2013.68 859.041 2023.69 859.042V860.242H1930.82V859.042C1940.83 859.042 1950.84 849.033 1950.84 835.423V604.841C1950.83 591.231 1940.83 581.223 1930.82 581.223V580.023H2006.88ZM2003.68 758.963H2015.28C2066.53 758.963 2108.96 726.937 2108.96 671.694C2108.96 616.451 2066.52 584.426 2015.28 584.426H2003.68V758.963Z" fill="#064C41"/>
<path d="M2606.25 645.273C2609.86 645.273 2613.86 646.074 2617.06 647.675C2669.1 671.293 2612.26 762.165 2547.81 860.242H2543.8L2467.34 709.323C2449.33 673.296 2432.12 661.286 2418.91 661.286V660.085H2545.8V661.286C2532.99 661.286 2504.17 674.096 2522.19 709.323L2574.63 811.805C2595.84 774.576 2605.85 741.349 2581.03 691.711C2575.43 680.502 2575.43 668.492 2581.03 659.685C2586.64 650.478 2596.64 645.273 2606.25 645.273Z" fill="#064C41"/>
<path fill-rule="evenodd" clip-rule="evenodd" d="M1859.28 138.325C1871.43 138.325 1882.98 141.364 1892.09 147.439C1901.81 154.122 1907.27 166.879 1906.67 179.637C1905.45 199.078 1892.7 212.444 1871.43 215.482C1851.38 218.519 1825.26 206.977 1804 206.977C1788.2 206.977 1775.44 213.051 1768.76 234.922C1847.74 240.998 1899.38 292.032 1899.38 355.823C1899.38 425.688 1840.45 477.935 1751.75 477.935C1729.27 477.935 1708 474.291 1689.78 467.609C1663.05 472.469 1652.72 485.835 1652.72 497.985C1652.72 516.818 1669.73 519.857 1684.92 519.857C1714.69 519.856 1748.71 499.201 1805.21 499.201C1854.24 499.026 1887.93 516.448 1905.32 541.366C1916.51 536.465 1925.66 523.736 1925.66 507.706V294.46C1925.66 273.805 1910.48 258.617 1895.29 258.616V256.794L2001.61 235.532V309.042C2026.51 262.262 2053.24 235.532 2111.57 235.532C2142.82 235.532 2167.62 243.754 2183.5 256.115L2286.43 235.532V507.706C2286.43 525.611 2297.85 539.399 2310.78 542.755C2323.71 539.399 2335.13 525.611 2335.13 507.706V294.46C2335.13 273.805 2319.94 258.616 2304.75 258.616V256.794L2411.07 235.532V306.611C2432.34 264.692 2457.85 235.532 2520.43 235.532C2558.7 235.532 2600.01 253.149 2606.09 308.433C2627.96 265.906 2652.87 235.532 2716.05 235.532C2757.37 235.532 2802.32 255.579 2802.32 321.8V507.706C2802.32 528.361 2817.51 543.549 2832.7 543.55V545.372H2696V543.55C2711.19 543.55 2726.38 528.361 2726.38 507.706V315.116C2726.38 275.02 2713.02 248.289 2684.46 248.289C2654.69 248.289 2628.57 276.235 2606.7 317.547V493.39H2530.76V315.116C2530.76 275.02 2517.39 248.289 2488.84 248.289C2459.07 248.29 2432.94 275.629 2411.07 316.941V507.706C2411.07 528.361 2426.26 543.55 2441.45 543.55V545.372H2180.11V543.55C2195.3 543.55 2210.49 528.361 2210.49 507.706V294.46C2210.49 277.437 2200.17 264.134 2188.04 259.979C2192.79 264.418 2196.49 269.283 2199.05 274.413C2209.38 294.462 2205.13 318.156 2185.08 330.914C2177.18 335.773 2168.68 338.203 2160.78 338.203C2144.38 338.203 2129.19 329.09 2117.64 314.51C2095.17 285.349 2086.66 253.759 2067.83 253.757C2052.03 253.757 2024.69 281.703 2001.61 320.584V507.706C2001.61 528.361 2016.79 543.55 2031.98 543.55V545.372H1907.93C1945.96 607.749 1887.44 711.227 1718.33 711.228C1519.06 711.228 1525.75 586.075 1638.14 561.166C1627.2 552.661 1619.91 541.12 1619.91 524.109C1619.91 496.163 1639.96 471.859 1681.88 464.569C1634.49 444.52 1604.12 404.424 1604.12 355.823C1604.12 273.198 1681.27 234.316 1754.78 234.316L1760.86 234.922H1763.9C1773.62 168.702 1820.4 138.325 1859.28 138.325ZM1781.52 561.166C1742.64 561.166 1720.76 574.533 1683.1 574.533C1678.84 574.533 1673.37 573.925 1669.12 573.318C1615.05 602.479 1631.46 703.937 1723.19 703.938C1866.57 703.938 1875.08 561.168 1781.52 561.166ZM1816.15 340.634C1800.96 276.843 1767.54 233.707 1725.62 243.427C1683.7 253.148 1672.16 307.22 1687.35 371.011C1702.54 434.801 1735.34 477.935 1777.87 468.215C1819.18 458.494 1831.33 404.425 1816.15 340.634Z" fill="#064C41"/>
<path fill-rule="evenodd" clip-rule="evenodd" d="M1577.9 507.706C1577.9 528.361 1593.09 543.549 1608.27 543.55V545.372H1346.94V543.55C1362.13 543.55 1377.32 528.361 1377.32 507.706V294.46C1377.32 276.498 1365.83 262.674 1352.85 259.373C1352.77 355.259 1272.57 398.35 1112.88 398.35H1108.01V507.706C1108.01 528.361 1123.2 543.55 1138.39 543.55V545.372H997.443V543.55C1012.63 543.55 1027.82 528.361 1027.82 507.706V157.766C1027.82 137.11 1012.63 121.921 997.443 121.921V120.099H1112.88C1270.64 120.1 1350.81 162.154 1352.8 255.619L1453.26 235.532V507.706C1453.26 525.611 1464.67 539.399 1477.61 542.755C1490.54 539.399 1501.96 525.612 1501.96 507.706V157.766C1501.96 137.11 1486.77 121.921 1471.58 121.921V120.099L1577.9 98.834V507.706ZM1108.01 391.667H1125.63C1203.4 391.667 1267.8 343.064 1267.8 259.225C1267.8 175.386 1203.4 126.783 1125.63 126.783H1108.01V391.667Z" fill="#064C41"/>
<path d="M1414.99 107.948C1445.36 107.949 1465.41 127.997 1465.41 157.766C1465.41 188.749 1445.36 208.192 1414.99 208.192C1385.22 208.192 1365.17 188.75 1365.17 157.766C1365.17 127.997 1385.22 107.948 1414.99 107.948Z" fill="#064C41"/>
<path d="M2248.16 107.948C2278.53 107.948 2298.58 127.997 2298.58 157.766C2298.58 188.75 2278.53 208.192 2248.16 208.192C2218.39 208.192 2198.34 188.749 2198.34 157.766C2198.34 127.997 2218.39 107.948 2248.16 107.948Z" fill="#064C41"/>
<path d="M839.916 237.94L840.032 323.376C840.086 370.574 840.159 379.481 840.032 391.172L420.562 253L0.0624882 390.5C-0.0672869 378.937 0.0368269 370.992 0.0908742 323.376L0.206109 238.248L420.534 101L839.916 237.94Z" fill="#B99962"/>
<path d="M839.916 136.94L840.032 222.376C840.076 261.298 840.071 284.91 839.997 298.55L839.916 237.94L420.534 101L0.206109 238.248L0.123105 298.274C0.0512059 284.593 0.0469946 261.037 0.0908781 222.376L0.206113 137.248L420.534 0L839.916 136.94Z" fill="#064C41"/>
<path d="M840.033 390V475.376C840.074 511.087 840.074 533.91 840.017 547.968L840.033 560.376C840.074 596.087 840.074 618.91 840.017 632.968L840.033 645.376C840.074 681.087 840.074 703.91 840.017 717.968L840.033 730.376C840.074 766.087 840.074 788.91 840.017 802.968L840.033 815.376C840.074 851.087 840.074 873.91 840.017 887.968L840.033 900.376C840.087 947.574 840.07 972.258 839.944 983.949L827.748 979.967V931.851C827.748 925.044 820.959 918.238 814.17 913.7L522.241 761.693V718.587C522.241 686.824 505.269 659.6 471.323 639.181L444.167 621.03C430.589 611.955 410.222 611.955 396.644 621.03L369.487 639.181C335.543 659.599 318.57 689.093 318.57 718.587V759.425L26.6408 911.432C16.4573 915.969 13.0626 922.776 13.0626 929.582V980.051L0.183743 984.257C0.0539677 972.694 0.0378987 947.992 0.091946 900.376L0.107571 888.285C0.0495266 874.255 0.0511044 851.357 0.091946 815.376L0.107571 803.285C0.0495266 789.255 0.0511044 766.357 0.091946 730.376L0.107571 718.285C0.0495266 704.255 0.0511044 681.357 0.091946 645.376L0.107571 633.285C0.0495266 619.255 0.0511044 596.357 0.091946 560.376L0.107571 548.285C0.0495266 534.255 0.0511044 511.357 0.091946 475.376V390.5L420.535 253L840.033 390Z" fill="#064C41"/>
</svg>
